<svg width="360" height="119" viewBox="0 0 360 119" fill="none" xmlns="http://www.w3.org/2000/svg">
<path d="M360 119.548L-1.52588e-05 119.548L-7.0121e-06 111.011L302.672 3.52698C308.178 1.57168 310.931 0.594028 313.323 0.253112C323.146 -1.14712 332.174 3.85151 336.175 12.9051C337.149 15.1094 337.772 17.9561 339.017 23.6496L360 119.548Z" fill="#52A5FF"/>
<path d="M360 119.548L-1.52588e-05 119.548L1.426e-05 90.9242L324.856 18.8743C331.289 17.4475 334.505 16.7341 337.145 16.7316C348.042 16.7209 357.117 24.1168 359.438 34.8999C360 37.5123 360 40.8471 360 47.5166V119.548Z" fill="#1D4ED8"/>
</svg>
